<?xml version="1.0" encoding="UTF-8" standalone="no"?>
<svg
   height="16"
   viewBox="0 0 16 16"
   width="16"
   version="1.1"
   id="svg17110"
   sodipodi:docname="entry.svg"
   inkscape:version="1.2.1 (9c6d41e410, 2022-07-14)"
   xmlns:inkscape="http://www.inkscape.org/namespaces/inkscape"
   xmlns:sodipodi="http://sodipodi.sourceforge.net/DTD/sodipodi-0.dtd"
   xmlns="http://www.w3.org/2000/svg"
   xmlns:svg="http://www.w3.org/2000/svg">
  <defs
     id="defs17114" />
  <sodipodi:namedview
     id="namedview17112"
     pagecolor="#505050"
     bordercolor="#eeeeee"
     borderopacity="1"
     inkscape:showpageshadow="0"
     inkscape:pageopacity="0"
     inkscape:pagecheckerboard="0"
     inkscape:deskcolor="#505050"
     showgrid="true"
     inkscape:zoom="45.387417"
     inkscape:cx="9.5951705"
     inkscape:cy="7.2376889"
     inkscape:window-width="1649"
     inkscape:window-height="1259"
     inkscape:window-x="2979"
     inkscape:window-y="1934"
     inkscape:window-maximized="0"
     inkscape:current-layer="svg17110">
    <inkscape:grid
       type="xygrid"
       id="grid17233" />
  </sodipodi:namedview>
  <path
     d="m 5,7.9997845 c 0,0.55231 0.4477,1 1,1 h 5.1484 L 8.375,11.218585 c -0.4317,0.34504 -0.50165,0.97482 -0.15625,1.4062 0.3449,0.4305 0.9732,0.5004 1.4043,0.15625 l 5,-4.0000005 C 14.85995,8.5923545 15,8.3065345 15,8.0036945 c 9e-4,-0.30559 -0.13795,-0.59477 -0.37695,-0.78516 l -5,-4 c -0.4311,-0.34415 -1.0594,-0.27424 -1.4043,0.15625 -0.3454,0.43143 -0.27545,1.0612 0.15625,1.4062 l 2.7734,2.2188 H 6 c -0.5523,0 -1,0.44769 -1,1 z"
     id="path17237"
     style="fill:#808080" />
  <path
     d="m 1,10 c -0.01913,1.352323 2.019125,1.352323 2,0 V 6 C 3.01913,4.6476773 0.980875,4.6476773 1,6 Z"
     id="path17108"
     style="fill:#808080" />
</svg>
