<?xml version="1.0" encoding="UTF-8" standalone="no"?>
<svg
   height="16"
   viewBox="0 0 16 16"
   width="16"
   version="1.1"
   id="svg17110"
   sodipodi:docname="exit.svg"
   inkscape:version="1.2.1 (9c6d41e410, 2022-07-14)"
   xmlns:inkscape="http://www.inkscape.org/namespaces/inkscape"
   xmlns:sodipodi="http://sodipodi.sourceforge.net/DTD/sodipodi-0.dtd"
   xmlns="http://www.w3.org/2000/svg"
   xmlns:svg="http://www.w3.org/2000/svg">
  <defs
     id="defs17114" />
  <sodipodi:namedview
     id="namedview17112"
     pagecolor="#505050"
     bordercolor="#eeeeee"
     borderopacity="1"
     inkscape:showpageshadow="0"
     inkscape:pageopacity="0"
     inkscape:pagecheckerboard="0"
     inkscape:deskcolor="#505050"
     showgrid="true"
     inkscape:zoom="45.387417"
     inkscape:cx="9.5951705"
     inkscape:cy="7.2376889"
     inkscape:window-width="1649"
     inkscape:window-height="1259"
     inkscape:window-x="2979"
     inkscape:window-y="1934"
     inkscape:window-maximized="0"
     inkscape:current-layer="svg17110">
    <inkscape:grid
       type="xygrid"
       id="grid17233" />
  </sodipodi:namedview>
  <path
     d="M 1,8 C 1,8.55231 1.4477,9 2,9 H 7.1484 L 4.375,11.2188 c -0.4317,0.34504 -0.50165,0.97482 -0.15625,1.4062 0.3449,0.4305 0.9732,0.5004 1.4043,0.15625 l 5,-4 C 10.85995,8.59257 11,8.30675 11,8.00391 11.0009,7.69832 10.86205,7.40914 10.62305,7.21875 l -5,-4 C 5.19195,2.8746 4.56365,2.94451 4.21875,3.375 3.87335,3.80643 3.9433,4.4362 4.375,4.7812 L 7.1484,7 H 2 C 1.4477,7 1,7.44769 1,8 Z"
     id="path17237"
     style="fill:#808080" />
  <path
     d="m 13,10 c -0.01913,1.352323 2.019125,1.352323 2,0 V 6 C 15.01913,4.6476773 12.980875,4.6476773 13,6 Z"
     id="path17108"
     style="fill:#808080" />
</svg>
